<svg width="207" height="800" viewBox="0 0 207 800" fill="none" xmlns="http://www.w3.org/2000/svg">
<path d="M155.158 799.5H0.5V0.5H154.893L141.268 43.8501L141.195 44.0833L141.334 44.2844L165.446 79.156V124.5V124.597L165.482 124.687L177.579 154.679L177.582 154.687L189.679 186.179L189.695 186.22L189.718 186.258L206.385 213.947L190 232.905L171.315 225.535L170.452 225.194L170.642 226.103L177.553 259.086L177.557 259.103L189.639 328.003L177.552 402.92L177.534 403.031L177.565 403.138L189.63 445.014L177.558 497.889L177.546 497.944V498V527.237L155.29 542.588L155.074 542.737V543V563V563.5H155.574H177.546V597.424L165.468 636.352L165.463 636.368L165.459 636.384L155.088 679.884L155.064 679.982L155.081 680.081L165.438 743.495L155.158 799.5Z" fill="#F8B155" stroke="black"/>
</svg>
